Coordinates
version=1
nRows=22
nColumns=32
inDegrees=yes

Units are S.I. units (second, meters, Newtons, ...)
If the header above contains a line with 'inDegrees', this indicates whether rotational values are in degrees (yes) or radians (no).

endheader
time	pelvis_tilt	pelvis_list	pelvis_rotation	pelvis_tx	pelvis_ty	pelvis_tz	hip_flexion_r	hip_adduction_r	hip_rotation_r	knee_angle_r	ankle_angle_r	subtalar_angle_r	mtp_angle_r	hip_flexion_l	hip_adduction_l	hip_rotation_l	knee_angle_l	ankle_angle_l	subtalar_angle_l	mtp_angle_l	lumbar_extension	lumbar_bending	lumbar_rotation	arm_flex_r	arm_add_r	arm_rot_r	elbow_flex_r	arm_flex_l	arm_add_l	arm_rot_l	elbow_flex_l
      2.75000000	    -10.11093300	    -11.64329269	     -7.03599540	     -0.86780448	      0.87700379	      0.24974278	     15.99526640	     15.13475217	     -7.75225158	    -22.56877235	     11.10204220	     -1.35477931	      0.00000000	     48.46150214	    -20.42028365	     -7.77866057	    -72.58832072	      2.50162985	    -27.35778967	      0.00000000	     -3.54898685	     17.42550481	      9.32093508	      0.00000000	      0.00000000	      0.00000000	      0.00000000	      0.00000000	      0.00000000	      0.00000000	      0.00000000
      2.76000000	    -10.05590409	    -11.74258171	     -7.29583725	     -0.85851296	      0.87650482	      0.25017046	     15.33015950	     15.16161540	     -7.84265921	    -22.83552589	     11.14778253	     -1.34935296	      0.00000000	     49.59536549	    -20.59336969	     -7.86970156	    -70.69940176	      2.56516624	    -27.32575617	      0.00000000	     -3.87938463	     17.35371177	      9.34072616	      0.00000000	      0.00000000	      0.00000000	      0.00000000	      0.00000000	      0.00000000	      0.00000000	      0.00000000
      2.77000000	     -9.73892013	    -11.36133781	     -7.98912459	     -0.84918303	      0.87679876	      0.25164531	     14.33339310	     14.77363082	     -7.43429525	    -23.06308082	     11.83522161	     -0.65651710	      0.00000000	     49.81981090	    -20.75099933	     -8.92257038	    -68.24112752	      2.84348641	    -27.10969618	      0.00000000	     -4.56158832	     16.60059715	     10.23426405	      0.00000000	      0.00000000	      0.00000000	      0.00000000	      0.00000000	      0.00000000	      0.00000000	      0.00000000
      2.78000000	     -9.22451892	    -11.32336574	     -8.07551399	     -0.83955613	      0.87707914	      0.25180911	     12.99037298	     14.70191546	     -7.08490084	    -22.91474188	     11.90939919	     -0.55439743	      0.00000000	     50.00202678	    -20.63517516	     -9.22839597	    -65.65291144	      2.92776604	    -27.05471565	      0.00000000	     -5.40017979	     16.26448839	     10.25798235	      0.00000000	      0.00000000	      0.00000000	      0.00000000	      0.00000000	      0.00000000	      0.00000000	      0.00000000
      2.79000000	     -8.73200365	    -11.38060381	     -8.47574529	     -0.83045404	      0.87728883	      0.25260038	     11.72034192	     14.68199999	     -6.97775744	    -22.88826796	     11.96477881	     -0.41493232	      0.00000000	     50.00202678	    -20.82549330	     -9.70044550	    -62.80165362	      3.03218765	    -27.00955865	      0.00000000	     -6.34767993	     15.95263605	     10.47533323	      0.00000000	      0.00000000	      0.00000000	      0.00000000	      0.00000000	      0.00000000	      0.00000000	      0.00000000
      2.80000000	     -8.39071389	    -11.41433013	     -8.69479822	     -0.82085283	      0.87713259	      0.25313625	     10.62083021	     14.66237376	     -6.55262374	    -22.90504466	     12.03413172	     -0.23036602	      0.00000000	     50.00202678	    -20.75702174	     -9.84715954	    -59.68317143	      3.16697873	    -26.93900027	      0.00000000	     -6.97229509	     15.65630079	     10.67883488	      0.00000000	      0.00000000	      0.00000000	      0.00000000	      0.00000000	      0.00000000	      0.00000000	      0.00000000
      2.81000000	     -8.15206223	    -11.52124946	     -8.87707778	     -0.81102329	      0.87665724	      0.25357597	      9.62862630	     14.68925111	     -6.25548617	    -22.90334519	     12.16967699	     -0.09078816	      0.00000000	     50.00202678	    -20.74584899	    -10.15891314	    -56.31673071	      3.25631229	    -26.78657699	      0.00000000	     -7.46595329	     15.42761805	     10.75123987	      0.00000000	      0.00000000	      0.00000000	      0.00000000	      0.00000000	      0.00000000	      0.00000000	      0.00000000
      2.82000000	     -8.01978588	    -11.67665617	     -9.13883548	     -0.80124336	      0.87577418	      0.25408166	      8.83120688	     14.76290656	     -6.14458424	    -23.12790313	     12.31936922	      0.03174193	      0.00000000	     50.00202678	    -20.76488852	    -10.29820193	    -52.80058044	      3.29697698	    -26.56911261	      0.00000000	     -7.87179563	     15.30173058	     10.83286126	      0.00000000	      0.00000000	      0.00000000	      0.00000000	      0.00000000	      0.00000000	      0.00000000	      0.00000000
      2.83000000	     -8.25320395	    -11.30225087	     -9.39584404	     -0.79141019	      0.87457529	      0.25450449	      8.61810565	     14.19931214	     -6.23788979	    -23.58836287	     12.86174476	      0.59911539	      0.00000000	     50.00202678	    -20.17345198	    -10.52454715	    -48.83106844	      3.06946642	    -25.22451752	      0.00000000	     -7.69564547	     14.55587821	     10.84040566	      0.00000000	      0.00000000	      0.00000000	      0.00000000	      0.00000000	      0.00000000	      0.00000000	      0.00000000
      2.84000000	     -8.30286038	    -11.60258337	     -9.55178038	     -0.78149063	      0.87316188	      0.25474249	      7.96148858	     14.43070097	     -6.00401099	    -23.71929059	     12.94916033	      0.80892680	      0.00000000	     50.00202678	    -20.07440190	    -10.31141075	    -45.16607698	      3.14399603	    -24.89245732	      0.00000000	     -7.94153572	     14.59667081	     10.90392884	      0.00000000	      0.00000000	      0.00000000	      0.00000000	      0.00000000	      0.00000000	      0.00000000	      0.00000000
      2.85000000	     -8.49523312	    -11.63196689	     -9.50544891	     -0.77084120	      0.87112063	      0.25490232	      7.55004622	     14.48360729	     -5.43572531	    -24.05756463	     13.17354076	      1.03363425	      0.00000000	     50.00202678	    -19.47776338	     -9.79694949	    -41.36817173	      3.10583546	    -24.33672296	      0.00000000	     -7.77673135	     14.25095453	     10.74735914	      0.00000000	      0.00000000	      0.00000000	      0.00000000	      0.00000000	      0.00000000	      0.00000000	      0.00000000
      2.86000000	     -8.93820651	    -11.89798694	    -10.03889670	     -0.75988517	      0.86918748	      0.25543938	      7.25349530	     14.50832278	     -5.91835161	    -24.29306900	     13.36516382	      1.56375668	      0.00000000	     50.00202678	    -19.66781378	     -9.76790297	    -37.67818474	      2.79675952	    -23.54747871	      0.00000000	     -7.31694046	     14.42433769	     10.81716164	      0.00000000	      0.00000000	      0.00000000	      0.00000000	      0.00000000	      0.00000000	      0.00000000	      0.00000000
      2.87000000	     -9.00054566	    -12.07596280	    -10.24028171	     -0.74871463	      0.86725848	      0.25576624	      6.59797308	     14.57961509	     -5.65690668	    -24.58551258	     13.34641607	      2.03332467	      0.00000000	     49.68120817	    -19.53962278	     -9.44311496	    -34.30957164	      2.60008259	    -23.18052164	      0.00000000	     -7.35230419	     14.20726387	     10.87090441	      0.00000000	      0.00000000	      0.00000000	      0.00000000	      0.00000000	      0.00000000	      0.00000000	      0.00000000
      2.88000000	     -9.05073518	    -12.34688333	    -10.51692838	     -0.73726617	      0.86546560	      0.25633722	      5.85261623	     14.80346892	     -5.20643344	    -24.83040120	     13.43677690	      2.28216355	      0.00000000	     49.23794144	    -19.49991454	     -9.04156250	    -31.20153995	      2.44972844	    -22.99042923	      0.00000000	     -7.29945860	     14.15564367	     10.84590448	      0.00000000	      0.00000000	      0.00000000	      0.00000000	      0.00000000	      0.00000000	      0.00000000	      0.00000000
      2.89000000	     -9.40061421	    -12.59877109	    -10.82942082	     -0.72520694	      0.86309789	      0.25710085	      5.34706843	     15.01765945	     -4.98108541	    -24.97976152	     13.48577110	      2.48788846	      0.00000000	     49.02402270	    -19.50074058	     -8.57877470	    -28.41698240	      2.29862908	    -22.90623884	      0.00000000	     -6.77891052	     14.16294793	     10.83962590	      0.00000000	      0.00000000	      0.00000000	      0.00000000	      0.00000000	      0.00000000	      0.00000000	      0.00000000
      2.90000000	     -9.55094825	    -12.71548224	    -11.00328546	     -0.71261491	      0.86058702	      0.25792723	      4.80487032	     14.98637441	     -4.96273457	    -25.47378012	     13.50209591	      2.68981762	      0.00000000	     48.55397587	    -19.33292540	     -8.16742151	    -25.97278036	      2.14891562	    -22.91709647	      0.00000000	     -6.34878578	     13.87222256	     10.62708834	      0.00000000	      0.00000000	      0.00000000	      0.00000000	      0.00000000	      0.00000000	      0.00000000	      0.00000000
      2.91000000	     -9.61160433	    -12.78009315	    -11.07184484	     -0.69940340	      0.85842463	      0.25802466	      4.07841424	     14.87950631	     -4.88250296	    -25.81208863	     13.44640278	      2.90015619	      0.00000000	     47.91547911	    -19.01431170	     -7.75823529	    -23.92291242	      2.04785862	    -22.89190850	      0.00000000	     -5.90142604	     13.60526959	     10.38325640	      0.00000000	      0.00000000	      0.00000000	      0.00000000	      0.00000000	      0.00000000	      0.00000000	      0.00000000
      2.92000000	     -9.51063297	    -12.82370164	    -11.12344325	     -0.68617822	      0.85603424	      0.25862619	      3.27767665	     14.77875811	     -4.58916458	    -26.32359241	     13.33570124	      3.07495462	      0.00000000	     47.22187011	    -18.85500960	     -7.69181927	    -22.43907426	      1.81799305	    -22.70936246	      0.00000000	     -5.60063242	     13.13240485	      9.90496277	      0.00000000	      0.00000000	      0.00000000	      0.00000000	      0.00000000	      0.00000000	      0.00000000	      0.00000000
      2.93000000	     -9.52672463	    -12.77573852	    -11.34029420	     -0.67289272	      0.85373216	      0.25859078	      2.64984917	     14.48933741	     -4.45588972	    -26.94632509	     13.23923662	      3.26023011	      0.00000000	     46.23294495	    -18.41297980	     -6.77772805	    -20.73012478	      1.55288674	    -22.51537812	      0.00000000	     -5.21928932	     12.83414492	      9.85453757	      0.00000000	      0.00000000	      0.00000000	      0.00000000	      0.00000000	      0.00000000	      0.00000000	      0.00000000
      2.94000000	     -8.97596802	    -12.48848561	    -10.70936174	     -0.65829866	      0.85150127	      0.25802749	      1.55156142	     13.68775147	     -5.45135389	    -27.63241153	     13.24366060	      3.73114184	      0.00000000	     44.92861441	    -17.35749488	     -5.80534236	    -19.80418169	     -3.04973049	    -22.02918210	      0.00000000	     -5.03242950	     11.91374845	      9.03150678	      0.00000000	      0.00000000	      0.00000000	      0.00000000	      0.00000000	      0.00000000	      0.00000000	      0.00000000
      2.95000000	     -8.85191562	    -12.63081214	    -10.69149849	     -0.64480708	      0.84874335	      0.25863630	      0.78065492	     13.76394469	     -4.72175263	    -28.18103715	     12.79380980	      3.62735293	      0.00000000	     44.83529174	    -17.25667287	     -4.94194903	    -21.11733000	    -11.82172431	    -25.44198559	      0.00000000	     -4.75557913	     11.55982507	      8.37424223	      0.00000000	      0.00000000	      0.00000000	      0.00000000	      0.00000000	      0.00000000	      0.00000000	      0.00000000
      2.96000000	     -9.03789774	    -12.51910317	    -10.12636600	     -0.63134679	      0.84587877	      0.25857535	      0.42373312	     13.59243975	     -4.73528910	    -28.73831164	     12.50442618	      3.61092746	      0.00000000	     45.42930283	    -16.50829782	     -3.01251202	    -22.73190589	    -16.59709485	    -23.94811840	      0.00000000	     -3.92140407	     10.96976087	      7.59222424	      0.00000000	      0.00000000	      0.00000000	      0.00000000	      0.00000000	      0.00000000	      0.00000000	      0.00000000
